<svg xmlns="http://www.w3.org/2000/svg" xmlns:xlink="http://www.w3.org/1999/xlink" viewBox="0 0 176.8 350.05"><defs><style>.cls-1{isolation:isolate;}.cls-2{opacity:0.16;}.cls-3{fill:#fff;}.cls-12,.cls-15,.cls-18,.cls-4,.cls-5,.cls-9{fill:none;stroke-miterlimit:10;}.cls-4{stroke:#333;stroke-width:4px;}.cls-12,.cls-15,.cls-18,.cls-5,.cls-9{opacity:0.4;}.cls-10,.cls-12,.cls-13,.cls-15,.cls-16,.cls-18,.cls-19,.cls-5,.cls-6,.cls-7,.cls-9{mix-blend-mode:multiply;}.cls-5{stroke:url(#linear-gradient);}.cls-10,.cls-13,.cls-16,.cls-19,.cls-6{opacity:0.3;}.cls-6{fill:url(#linear-gradient-2);}.cls-7{opacity:0.73;fill:url(#linear-gradient-3);}.cls-8{fill:#333;}.cls-9{stroke:url(#linear-gradient-4);}.cls-10{fill:url(#linear-gradient-5);}.cls-11,.cls-14,.cls-17,.cls-20{opacity:0.6;mix-blend-mode:overlay;}.cls-11{fill:url(#linear-gradient-6);}.cls-12{stroke:url(#linear-gradient-7);}.cls-13{fill:url(#linear-gradient-8);}.cls-14{fill:url(#linear-gradient-9);}.cls-15{stroke:url(#linear-gradient-10);}.cls-16{fill:url(#linear-gradient-11);}.cls-17{fill:url(#linear-gradient-12);}.cls-18{stroke:url(#linear-gradient-13);}.cls-19{fill:url(#linear-gradient-14);}.cls-20{fill:url(#linear-gradient-15);}</style><linearGradient id="linear-gradient" x1="111.67" y1="11.35" x2="123.72" y2="11.35" gradientUnits="userSpaceOnUse"><stop offset="0" stop-color="#404040"/><stop offset="0.33" stop-color="#3c3c3c"/><stop offset="0.66" stop-color="#303030"/><stop offset="1" stop-color="#1b1b1b"/></linearGradient><linearGradient id="linear-gradient-2" x1="130.96" y1="-151.18" x2="78.46" y2="492.29" gradientUnits="userSpaceOnUse"><stop offset="0" stop-color="#00569e"/><stop offset="1" stop-color="#2b454e"/></linearGradient><linearGradient id="linear-gradient-3" x1="130.96" y1="-151.18" x2="78.46" y2="492.29" gradientUnits="userSpaceOnUse"><stop offset="0" stop-color="#fff"/><stop offset="0.58" stop-color="#00569c"/><stop offset="1" stop-color="#2b454e"/></linearGradient><linearGradient id="linear-gradient-4" x1="113.19" y1="11.55" x2="124.12" y2="11.55" xlink:href="#linear-gradient"/><linearGradient id="linear-gradient-5" x1="131.93" y1="-151.1" x2="79.43" y2="492.37" xlink:href="#linear-gradient-2"/><linearGradient id="linear-gradient-6" x1="131.93" y1="-151.1" x2="79.43" y2="492.36" xlink:href="#linear-gradient-3"/><linearGradient id="linear-gradient-7" x1="101.51" y1="11.55" x2="110.05" y2="11.55" xlink:href="#linear-gradient"/><linearGradient id="linear-gradient-8" x1="119.14" y1="-152.15" x2="66.64" y2="491.32" xlink:href="#linear-gradient-2"/><linearGradient id="linear-gradient-9" x1="119.14" y1="-152.14" x2="66.64" y2="491.32" xlink:href="#linear-gradient-3"/><linearGradient id="linear-gradient-10" x1="562.63" y1="249.15" x2="573.56" y2="249.15" gradientTransform="translate(628.23 260.7) rotate(180)" xlink:href="#linear-gradient"/><linearGradient id="linear-gradient-11" x1="582.2" y1="76.27" x2="529.7" y2="719.74" gradientTransform="translate(628.23 260.7) rotate(180)" xlink:href="#linear-gradient-2"/><linearGradient id="linear-gradient-12" x1="582.2" y1="76.27" x2="529.7" y2="719.74" gradientTransform="translate(628.23 260.7) rotate(180)" xlink:href="#linear-gradient-3"/><linearGradient id="linear-gradient-13" x1="550.95" y1="249.15" x2="559.49" y2="249.15" gradientTransform="translate(628.23 260.7) rotate(180)" xlink:href="#linear-gradient"/><linearGradient id="linear-gradient-14" x1="569.41" y1="75.23" x2="516.91" y2="718.7" gradientTransform="translate(628.23 260.7) rotate(180)" xlink:href="#linear-gradient-2"/><linearGradient id="linear-gradient-15" x1="569.41" y1="75.23" x2="516.91" y2="718.7" gradientTransform="translate(628.23 260.7) rotate(180)" xlink:href="#linear-gradient-3"/></defs><title>iphone-x</title><g class="cls-1"><g id="Layer_1" data-name="Layer 1"><g class="cls-2"><path d="M499,531.15A16.91,16.91,0,0,0,516,548H640a16.91,16.91,0,0,0,17-16.85V227.85A16.91,16.91,0,0,0,640,211H516a16.91,16.91,0,0,0-17,16.85Z" transform="translate(-499 -209.13)"/></g><rect class="cls-3" x="173.38" y="74.34" width="3.42" height="46.03"/><rect class="cls-3" x="1.64" y="43.52" width="3.42" height="13.11"/><rect class="cls-3" x="1.64" y="69.31" width="3.42" height="22.23"/><rect class="cls-3" x="1.64" y="98.14" width="3.42" height="22.23"/><path class="cls-3" d="M648.28,214.13a19.11,19.11,0,0,1,19.09,19.09V535.08a19.11,19.11,0,0,1-19.09,19.09H528.15a19.11,19.11,0,0,1-19.09-19.09V233.22a19.11,19.11,0,0,1,19.09-19.09H648.28m0-5H528.15a24.09,24.09,0,0,0-24.09,24.09V535.08a24.09,24.09,0,0,0,24.09,24.09H648.28a24.09,24.09,0,0,0,24.09-24.09V233.22a24.09,24.09,0,0,0-24.09-24.09Z" transform="translate(-499 -209.13)"/><rect class="cls-4" x="418.19" y="304.99" width="340.05" height="158.31" rx="19.11" ry="19.11" transform="translate(473.37 -413.19) rotate(90)"/><circle class="cls-5" cx="117.7" cy="11.35" r="5.52"/><circle class="cls-6" cx="117.7" cy="11.35" r="4.96"/><circle class="cls-7" cx="117.7" cy="11.35" r="3.83"/><path class="cls-8" d="M634.21,213.38l-6.28,9.78A12.81,12.81,0,0,1,617.15,229H559a12.81,12.81,0,0,1-11.89-8L544,213.38h91" transform="translate(-499 -209.13)"/><circle class="cls-9" cx="118.66" cy="11.55" r="4.96"/><circle class="cls-10" cx="118.66" cy="11.55" r="4.46"/><circle class="cls-11" cx="118.66" cy="11.55" r="3.45"/><circle class="cls-12" cx="105.78" cy="11.55" r="3.77"/><circle class="cls-13" cx="105.78" cy="11.55" r="3.39"/><circle class="cls-14" cx="105.78" cy="11.55" r="2.62"/><circle class="cls-15" cx="60.14" cy="11.55" r="4.96"/><circle class="cls-16" cx="60.14" cy="11.55" r="4.46"/><circle class="cls-17" cx="60.14" cy="11.55" r="3.45"/><circle class="cls-18" cx="73.01" cy="11.55" r="3.77"/><circle class="cls-19" cx="73.01" cy="11.55" r="3.39"/><circle class="cls-20" cx="73.01" cy="11.55" r="2.62"/></g></g></svg>